<?xml version="1.0" encoding="UTF-8" standalone="no"?>
<!-- Created with Inkscape (http://www.inkscape.org/) -->

<svg
   width="126.53055mm"
   height="26.550255mm"
   viewBox="0 0 121.66505 25.529315"
   version="1.1"
   id="svg1"
   xml:space="preserve"
   xmlns="http://www.w3.org/2000/svg"
   xmlns:svg="http://www.w3.org/2000/svg"><defs
     id="defs1"><style
       id="style1">
      .brand { font-family: Arial, Helvetica, sans-serif; font-weight: 700; letter-spacing: 0.5px; fill: #24324A; }
      .tag { font-family: Arial, Helvetica, sans-serif; font-weight: 600; fill: #3F4B5D; }
      .blue { fill: #2F6BFF; }
    </style></defs><g
     id="layer1"
     transform="translate(-44.207059,-135.6666)"><g
       id="g1"
       transform="matrix(0.26458333,0,0,0.26458333,41.988652,129.47944)"><g
         transform="translate(18,33)"
         id="g4"><polygon
           class="blue"
           points="26,18 26,0 38,0 38,26 20,38 0,26 0,0 "
           id="polygon1" /><polygon
           class="blue"
           points="20,34 38,48 38,74 26,74 26,56 0,74 0,48 "
           id="polygon2" /><polygon
           class="blue"
           points="36,18 36,0 24,0 24,26 42,38 62,26 62,0 "
           id="polygon3" /><polygon
           class="blue"
           points="42,34 24,48 24,74 36,74 36,56 62,74 62,48 "
           id="polygon4" /></g><text
         x="115"
         y="70"
         class="brand"
         font-size="44px"
         id="text4">MAPLE DIGITAL</text><text
         x="115"
         y="110"
         class="tag"
         font-size="22px"
         id="text5">Websites That Work.</text></g><g
       id="g9"
       transform="matrix(0.26458333,0,0,0.26458333,41.988652,129.47944)"><g
         transform="translate(18,33)"
         id="g8"><polygon
           class="blue"
           points="26,18 26,0 38,0 38,26 20,38 0,26 0,0 "
           id="polygon5" /><polygon
           class="blue"
           points="20,34 38,48 38,74 26,74 26,56 0,74 0,48 "
           id="polygon6" /><polygon
           class="blue"
           points="36,18 36,0 24,0 24,26 42,38 62,26 62,0 "
           id="polygon7" /><polygon
           class="blue"
           points="42,34 24,48 24,74 36,74 36,56 62,74 62,48 "
           id="polygon8" /></g><text
         x="115"
         y="70"
         class="brand"
         font-size="44px"
         id="text8">MAPLE DIGITAL</text><text
         x="115"
         y="110"
         class="tag"
         font-size="22px"
         id="text9">Websites That Work.</text></g></g></svg>
